<svg width="127" height="333" viewBox="0 0 127 333" fill="none" xmlns="http://www.w3.org/2000/svg">
<g clip-path="url(#clip0_14_205)">
<path d="M48.4274 294.288C53.7205 293.108 56.9409 289.516 58.7136 284.669C60.4585 279.891 60.1601 274.902 59.0244 269.964C62.8804 279.095 60.3838 291.363 50.5497 295.098C46.2356 296.738 41.8438 296.466 37.4358 295.154C27.3728 292.159 20.2453 285.863 16.8027 275.974C14.3464 268.926 14.3376 261.774 19.0898 255.398C21.6018 252.025 25.0547 250.137 29.2765 249.778C30.571 249.669 31.8696 249.64 33.1691 249.271C29.5811 248.454 25.9592 247.764 22.4202 246.766C20.6395 246.265 18.9104 245.369 17.3665 244.333C16.6362 243.843 16.1028 242.645 15.9981 241.712C15.7455 239.429 15.6922 237.108 15.7963 234.811C15.8267 234.166 16.564 233.276 17.1973 232.985C21.896 230.816 26.6499 228.769 31.388 226.674C31.6372 226.563 31.8607 226.387 32.2288 226.154C29.6132 223.787 27.1217 221.49 24.5835 219.241C22.3676 217.274 20.1558 215.298 17.8515 213.438C16.534 212.374 15.9587 211.232 16.0004 209.474C16.0661 206.674 15.7739 203.866 15.6125 200.635C17.2927 200.913 18.4385 201.043 19.559 201.295C31.726 204.016 43.8829 206.804 56.0681 209.443C58.1637 209.897 58.8495 210.747 58.6741 212.869C58.45 215.538 58.5938 218.239 58.5806 220.924C58.8223 220.934 59.0639 220.94 59.3101 220.95C59.4263 217.911 59.5468 214.867 59.663 211.828C59.7301 211.829 59.8018 211.834 59.8689 211.835L60.4043 222.553C52.0446 220.656 44.0419 218.84 36.0436 217.024C35.9302 217.168 35.8166 217.308 35.7031 217.452C39.8971 221.455 44.0908 225.454 48.5992 229.759C45.2593 231.494 42.2894 233.036 39.3241 234.578C39.3989 234.735 39.478 234.888 39.5529 235.045C41.6111 234.035 43.6789 233.038 45.7321 232.016C46.7214 231.519 47.666 230.932 48.6753 230.479C48.99 230.338 49.4407 230.508 49.8309 230.538C49.6359 230.927 49.5443 231.508 49.2308 231.671C46.0221 233.35 42.7742 234.96 39.5415 236.605C38.8922 236.932 38.2727 237.32 37.0128 238.036C40.1031 238.726 42.5784 239.268 45.0503 239.832C49.104 240.76 53.143 241.751 57.2066 242.607C58.5158 242.881 58.6081 243.654 58.5884 244.691C58.5285 247.786 58.5046 250.883 58.4672 253.981C58.7538 253.993 59.0405 254.01 59.3271 254.023C59.3912 250.834 59.4597 247.645 59.524 244.461C59.6403 244.464 59.7567 244.467 59.8774 244.47L60.4208 255.348C54.1225 253.934 48.1538 252.593 42.2305 251.262C45.1116 253.401 48.276 255.218 50.7726 257.707C57.792 264.701 60.3966 273.197 58.1863 282.967C56.946 288.457 53.3373 291.965 48.4189 294.297L48.4274 294.288ZM33.477 261.068C33.3738 260.881 33.2662 260.694 33.1633 260.512C31.7599 261.216 30.171 261.693 28.9818 262.66C25.2124 265.725 25.241 269.695 26.5316 273.978C28.2506 279.682 35.3828 284.284 41.1637 283.12C43.7246 282.603 45.7706 281.17 46.8545 278.632C49.2621 272.99 46.3377 265.514 40.7308 263.006C35.133 260.503 29.3015 262.8 27.8117 268.302C27.333 270.078 27.597 272.053 27.5053 274.242C26.318 271.58 26.5233 269.073 27.1845 266.659C28.0309 263.569 30.4987 261.994 33.4725 261.068L33.477 261.068Z" fill="white"/>
<path d="M102.795 62.1689C103.043 59.7977 103.318 57.434 103.525 55.0603C103.617 54.0327 103.57 52.9941 103.907 51.9631C103.937 58.8371 103.973 65.7109 104.005 72.9735C98.9217 71.829 94.1278 70.7506 88.8864 69.5694C91.4387 71.3853 93.7208 72.7098 95.6519 74.4317C100.566 78.8101 102.986 84.3227 102.654 91.0004C102.512 93.7997 102.604 96.6141 102.587 99.4205C102.82 99.4179 103.056 99.4105 103.288 99.4079L102.639 86.4041C102.857 86.3976 103.076 86.3912 103.294 86.3847L104.007 100.659C98.8431 99.5004 94.1668 98.4518 89.4906 97.4032C95.1088 100.227 99.57 104.124 101.661 110.122C103.742 116.089 103.599 121.913 99.5132 127.134C103.829 123.023 104.235 117.919 103.11 112.395C104.614 116.908 104.861 121.332 102.259 125.572C99.6517 129.817 95.7418 131.41 90.9142 131.089C89.6546 131.004 88.4035 130.821 87.1501 130.683L87.2237 130.724C84.3407 129.085 81.176 127.8 78.634 125.742C72.6051 120.87 69.7912 114.444 71.1746 106.632C72.283 100.38 76.477 97.0526 82.8858 96.9201C83.4348 96.9105 83.9776 96.8655 84.5759 96.4112C82.0251 95.7881 79.4847 95.1064 76.9199 94.5599C71.9711 93.5115 71.0032 92.1124 71.2991 87.9294C71.562 84.2484 71.4648 80.4247 72.4928 76.9467C73.9683 71.9632 78.0587 69.6904 83.1571 69.2615C83.5931 69.2263 84.035 69.2176 84.572 68.8781C84.1787 68.6967 83.8 68.4475 83.3886 68.3519C80.572 67.684 77.7331 67.1065 74.9361 66.384C72.8044 65.8338 71.3632 64.5298 71.3653 62.1574C71.3678 56.2155 71.4194 50.2711 71.462 44.3272C71.4655 44.1304 71.6211 43.935 71.8169 43.474C73.8047 44.5408 75.8795 45.3842 77.5934 46.6925C78.3505 47.2712 78.6406 48.7846 78.7007 49.8984C78.846 52.6298 78.733 55.374 78.7268 58.1129L79.3004 58.1468C79.3776 55.3106 79.4546 52.4698 79.5318 49.6336C79.6078 49.6342 79.6795 49.6396 79.7555 49.6402C79.8577 51.6857 80.0269 53.7323 80.0489 55.7818C80.0857 59.1128 80.069 59.136 83.6259 59.2397C83.6572 57.5405 83.6974 55.8408 83.7153 54.1423C83.7303 52.5645 84.3257 51.6055 86.0822 51.6205C87.4095 51.6301 88.7433 51.501 90.3833 51.4191C90.3981 54.3982 90.4137 57.3951 90.4294 60.392C90.6442 60.3991 90.8592 60.4107 91.074 60.4179C91.1296 57.8641 91.1897 55.3102 91.2453 52.7564C91.2727 52.7685 91.3001 52.7805 91.3317 52.7879C91.429 54.7353 91.5617 56.6765 91.6145 58.6262C91.6932 61.6334 91.6709 61.6345 95.3225 61.6665C95.3373 59.6375 95.4093 57.5923 95.352 55.549C95.2093 50.7267 95.1826 50.7281 99.9374 50.4861C100.753 50.4453 101.564 50.4048 102.246 50.3708C102.447 54.3994 102.642 58.2942 102.846 62.1976C102.773 65.3017 102.695 68.3971 102.617 71.4925C102.836 71.4905 103.059 71.4883 103.278 71.4863L102.812 62.1546L102.795 62.1689ZM79.7524 84.8132C80.2158 85.4155 80.5769 86.3848 81.1659 86.5475C83.5217 87.2027 85.9446 87.5909 88.3383 88.1102C90.4836 88.5749 92.6176 89.0804 94.7279 89.5602C96.048 85.1339 93.0747 80.2565 88.5861 79.0288C84.2378 77.8387 80.8299 80.0908 79.7029 84.8961C80.0116 83.0267 80.3203 81.1572 80.5505 79.7742C78.7674 81.2839 78.3182 82.6645 79.0587 85.6833C79.3152 85.3622 79.5293 85.088 79.7479 84.8135L79.7524 84.8132ZM79.1384 112.409C79.3532 110.986 79.5679 109.559 79.8331 107.804C76.9606 111.293 79.2889 114.17 80.4287 116.865C81.6806 119.836 84.5224 121.276 87.7096 121.67C90.6227 122.034 93.3953 120.211 94.3369 117.506C95.7353 113.483 92.9148 107.731 88.9697 106.561C83.9271 105.066 80.7719 107.011 79.1381 112.404L79.1384 112.409Z" fill="white"/>
<path d="M55.0112 106.546C60.7785 105.914 59.936 101.39 60.2113 97.5122C62.1731 101.815 61.0824 105.381 57.2737 107.389C51.0578 110.666 44.7877 113.843 38.5564 117.081C38.0686 117.333 37.6693 117.746 36.8132 118.405C43.6693 119.894 50.0098 121.436 56.4203 122.59C58.9131 123.038 59.3616 124.145 59.1848 126.33C58.9793 128.922 59.0518 131.537 59.0078 134.144C59.3119 134.151 59.6159 134.153 59.92 134.161C59.9569 131.054 59.9938 127.947 60.0307 124.84L60.4037 124.884L60.9251 135.321C57.1341 134.554 53.6526 133.902 50.1969 133.141C40.923 131.098 31.6569 129.032 22.3937 126.935C19.0951 126.188 16.5083 123.771 16.1887 119.788C15.7919 114.796 17.518 112.324 21.9793 110.591C26.2304 108.94 30.1993 106.562 34.2719 104.468C34.9776 104.107 35.604 103.589 36.6887 102.856C34.2522 102.285 32.2537 101.808 30.2559 101.345C27.2909 100.658 24.3034 100.057 21.3609 99.2832C17.78 98.3408 16.5761 96.6005 16.5567 92.9024C16.5457 90.9819 16.3782 89.0603 16.2604 86.7028C18.9897 87.2322 21.2923 87.6264 23.5691 88.1292C34.2933 90.4974 45.0021 92.9154 55.7299 95.2656C58.9685 95.9749 58.7918 95.9257 59.1373 99.0849C59.5237 102.617 58.6308 105.222 55.0027 106.556L55.0112 106.546ZM52.7892 108.301C52.6816 108.115 52.5742 107.932 52.4666 107.746C46.3701 110.909 40.2736 114.073 34.1773 117.241L34.4542 117.777L52.7892 108.301Z" fill="white"/>
<path d="M60.8633 94.2854C53.8116 92.7255 47.1533 91.2622 40.4984 89.7764C34.8467 88.5174 29.1795 87.3083 23.561 85.9092C21.8194 85.478 20.1419 84.6281 18.5652 83.7419C17.2092 82.9786 16.551 81.6981 16.663 80.0037C16.8277 77.5786 16.7995 75.1363 16.8578 72.4573C22.3911 73.6686 27.7075 74.8326 33.3176 76.0624C33.4055 72.9932 33.5712 70.0498 33.5047 67.109C33.4925 66.5959 32.5867 65.8146 31.9669 65.658C29.0892 64.9305 26.0936 64.6156 23.291 63.6923C21.2425 63.0173 19.3846 61.6894 17.5342 60.5086C17.0774 60.2187 16.7715 59.3718 16.7551 58.7739C16.6854 56.0388 16.7497 53.3015 16.7657 50.1332C19.681 50.8096 22.3805 51.4566 25.0955 52.0581C34.3701 54.1145 43.627 56.2655 52.9339 58.1639C59.122 59.4274 59.1451 59.2654 59.3298 65.5554C59.3787 67.2506 59.4945 68.9425 60.0901 70.6685C60.1625 69.0789 60.2486 67.4931 60.2988 65.9046C60.3501 64.3384 60.3614 62.7742 60.6288 61.2419L61.168 72.0353C58.6943 71.5245 56.6094 71.1059 54.5276 70.6604C51.913 70.103 49.3025 69.5365 46.6955 68.9519C45.0373 68.5791 44.1389 68.9277 44.3097 70.9162C44.4763 72.9093 44.4744 74.9287 44.3689 76.931C44.2931 78.3644 44.9041 78.8789 46.204 79.1446C49.9099 79.9065 53.5746 80.9163 57.3045 81.5341C59.0298 81.8187 59.2927 82.6991 59.2984 84.0659C59.3108 86.3705 59.323 88.6707 59.3487 90.9747C59.3576 91.689 59.4197 92.3962 59.4553 93.1093C59.6748 93.1206 59.8896 93.1278 60.1091 93.1392C60.1309 89.908 60.1524 86.6725 60.1742 83.4414C60.4605 83.4494 60.7513 83.4572 61.0374 83.4608C60.9826 86.9259 60.9279 90.3909 60.8635 94.2898L60.8633 94.2854ZM43.7301 67.4515C42.3216 68.3216 42.0203 75.5249 43.3664 78.1471C43.4941 74.3523 43.6098 70.9467 43.7301 67.4515Z" fill="white"/>
<path d="M96.1503 241.631C97.268 245.94 97.7052 250.22 95.0649 254.154C92.0586 258.633 87.6534 259.344 82.6442 258.518C87.7641 260.844 91.3235 264.576 93.5964 269.653C95.9149 274.836 94.473 280.314 94.9313 285.643C95.2127 285.642 95.4899 285.646 95.7713 285.646C95.7762 281.629 95.7811 277.613 95.7859 273.596C95.8929 273.591 96.0043 273.585 96.1115 273.584L96.7827 287.02C94.8375 286.626 93.2187 286.327 91.6104 285.97C84.7296 284.433 77.834 282.959 70.9828 281.3C67.4329 280.441 65.5912 278.54 66.0706 275.17C66.4442 272.542 66.0704 269.8 66.503 267.192C67.4206 261.682 70.9471 258.495 76.4829 257.7C76.9798 257.631 77.4824 257.588 78.3666 257.49C76.5854 256.176 75.0953 255.053 73.5755 253.963C67.3708 249.506 63.8761 240.719 66.8682 233.363C68.5986 229.1 71.959 227.06 76.3285 226.797C84.1408 226.322 92.2296 232.096 94.2928 239.682C94.9939 242.269 95.3393 245.071 95.2002 247.741C94.9384 252.695 91.3419 256.359 86.5031 257.244C86.1976 257.3 85.9175 257.506 85.6842 257.754C89.6517 257.583 92.7412 255.842 94.7372 252.423C96.7042 249.05 96.7752 245.375 96.1639 241.634L96.1503 241.631ZM78.5328 234.344C74.335 235.362 72.5512 237.574 72.826 240.839C73.0837 243.94 74.6538 246.305 77.0912 248.056C80.7936 250.716 85.5362 249.872 87.3311 246.365C88.8776 243.339 86.6337 237.5 83.4287 236.302C77.6651 234.146 73.8997 238.185 74.8218 242.87C74.8884 243.22 74.7823 243.601 74.7292 244.327C72.5594 239.704 73.3621 237.618 78.533 234.349L78.5328 234.344ZM87.6043 276.426C88.8932 272.806 86.3402 268.292 82.6156 267.155C80.0886 266.383 77.7728 266.977 76.1111 268.861C75.2359 269.851 74.9243 271.484 74.7792 272.872C74.7466 273.204 76.3487 273.884 77.2758 274.11C80.6635 274.941 84.0807 275.646 87.6087 276.426L87.6043 276.426ZM77.3985 266.013C73.814 266.697 71.9181 270.062 73.5512 273.152C73.2951 269.904 74.6388 267.558 77.3985 266.013Z" fill="white"/>
<path d="M48.6435 194.16L47.9164 179.605C48.1437 179.594 48.371 179.582 48.5983 179.571C50.3196 184.426 48.5107 189.534 49.3775 194.543C52.9154 195.34 56.4397 196.134 59.9457 196.919C59.944 200.998 59.9476 204.916 59.9458 209.084C58.6983 208.793 57.4951 208.496 56.2847 208.235C45.5494 205.912 34.8145 203.598 24.0787 201.266C22.918 201.016 21.76 200.73 20.6372 200.344C17.6188 199.301 16.1866 197.282 16.1825 194.07C16.171 187.758 16.2577 181.446 16.1793 175.137C16.1001 168.811 20.6145 165.904 25.2238 166.058C30.8444 166.247 36.4819 167.131 41.2514 170.583C45.2839 173.5 47.5224 177.44 47.5114 182.498C47.5057 185.693 47.3795 188.889 47.3557 192.08C47.3519 192.808 47.5626 193.539 47.6751 194.271L48.6482 194.164L48.6435 194.16ZM37.501 182.793C37.6367 178.622 37.4317 178.364 33.284 177.522C32.3361 177.328 31.3893 177.156 30.4384 176.989C28.8561 176.706 28.0085 177.356 27.9734 178.98C27.9007 182.173 27.7653 185.365 27.8487 188.555C27.8638 189.126 28.7111 189.991 29.3326 190.179C31.3185 190.763 33.4041 191.016 35.4139 191.541C36.9438 191.939 37.4674 191.421 37.4508 189.925C37.4215 187.55 37.4813 185.17 37.5013 182.797L37.501 182.793ZM27.7577 175.644C26.6235 175.656 26.1874 176.585 26.151 177.914C26.0667 180.875 25.9375 183.835 25.8935 186.799C25.8801 187.693 26.09 188.585 26.2018 189.482C26.4255 189.489 26.6492 189.495 26.8729 189.502C26.9474 188.757 27.0889 188.013 27.0831 187.271C27.0518 184.677 26.8686 182.082 26.9449 179.496C26.9799 178.23 27.4624 176.977 27.7579 175.649L27.7577 175.644Z" fill="white"/>
<path d="M51.8432 160.998C47.5696 157.995 42.2391 157.265 40.4145 151.772L34.3226 152.076C34.2851 152.221 34.2521 152.366 34.2147 152.511C39.2378 155.405 44.2572 158.313 49.2843 161.198C53.4603 163.589 57.6982 165.879 61.7832 168.418C62.4381 168.828 62.7005 170.325 62.6644 171.3C62.5787 173.878 62.2287 176.442 61.9679 179.18C57.2173 176.464 52.3938 173.721 47.5828 170.959C38.7893 165.921 30.0367 160.81 21.1894 155.86C17.7057 153.912 15.3954 151.574 16.214 147.213C16.4719 145.847 16.3599 144.409 16.4321 142.547C30.4964 140.589 44.5604 138.627 58.8907 136.629C59.0218 140.505 59.5472 144.137 58.0691 147.727C59.4602 147.582 59.8511 146.463 59.8709 145.162C59.8966 143.53 59.7657 141.893 59.7513 140.263C59.7444 139.499 59.8536 138.734 59.9138 137.972C60.128 137.965 60.3376 137.959 60.552 137.958C60.5881 138.68 60.6511 139.405 60.6557 140.124C60.6599 141.459 60.6286 142.801 60.6061 144.138C60.5467 147.241 59.0028 148.919 55.9745 149.172C52.2374 149.484 52.0738 149.697 52.0725 153.428C52.0709 155.72 51.944 158.009 51.8478 161.003L51.8432 160.998ZM51.0389 148.476C49.9156 149.868 49.7804 158.251 50.9902 159.933C51.0069 155.974 51.0233 152.278 51.0389 148.476Z" fill="white"/>
<path d="M59.9347 2.54194C59.8494 5.66453 59.9179 8.55606 59.5956 11.4046C59.5122 12.1503 58.2896 12.895 57.4426 13.3795C56.8782 13.7071 56.0498 13.5787 55.3528 13.7565C60.2089 13.6658 60.952 13.517 60.7334 9.14077C60.6481 7.43397 60.5631 5.73163 60.4778 4.02483C60.8219 4.02552 61.1612 4.02196 61.5053 4.02264C61.4111 7.05633 61.4471 10.1014 61.1238 13.1108C61.0572 13.744 59.7075 14.629 58.8726 14.7288C52.9478 15.4268 52.9226 15.37 52.6115 21.2157C52.5223 22.9178 52.5583 24.6226 52.5393 26.3882C51.3132 25.1852 51.6639 15.482 52.9131 14.2849C51.2377 14.3731 51.0788 14.591 51.0489 16.4956C51.0029 19.241 50.9256 21.9879 50.8395 24.7353C50.8315 24.9322 50.671 25.119 50.4571 25.5764C47.2176 23.0622 42.3785 22.598 41.4725 17.519L35.4073 17.822C35.3494 18.0036 35.2914 18.1852 35.2293 18.3715C38.0521 20.0577 40.8578 21.7582 43.6929 23.4214C48.5988 26.2947 53.5461 29.1033 58.4066 32.0503C59.0516 32.4425 59.6126 33.4778 59.6601 34.2483C59.7932 36.4665 59.6325 38.7038 59.6096 40.9297C59.6038 41.618 59.6737 42.3025 59.7083 42.9933C59.9718 42.9935 60.2352 42.9893 60.4944 42.9897C60.5165 40.0356 60.5432 37.0812 60.5654 34.1271C60.7978 34.1289 61.0346 34.1305 61.267 34.1323C61.2691 37.4828 61.271 40.8289 61.2717 44.5101C56.4754 41.685 52.0374 39.0564 47.5785 36.4556C41.1362 32.6986 34.6693 28.983 28.2351 25.2077C25.3632 23.524 22.5734 21.6932 19.6975 20.0185C17.7236 18.8707 17.0898 17.093 16.9847 14.9896C16.9625 14.544 16.9758 14.0965 16.958 13.6507C16.7658 8.46009 16.7508 8.3402 21.7857 7.62407C34.0516 5.88551 46.3368 4.26662 58.6111 2.60806C58.8997 2.5713 59.1905 2.57912 59.9347 2.54194Z" fill="white"/>
<path d="M96.8755 180.041C93.4274 179.163 90.2973 177.854 88.8389 173.969C81.7821 175.885 77.3507 170.437 71.7594 168.063C71.7792 167.834 71.8035 167.605 71.8234 167.376C77.6071 166.538 83.3909 165.699 89.1744 164.856C84.3279 163.441 80.287 160.98 76.813 157.526C72.9018 153.638 70.7179 148.913 70.5245 143.433C70.3832 139.352 72.0766 135.957 75.3506 133.439C79.0045 136.022 79.4592 137.79 78.7404 142.093C78.3182 144.643 78.065 147.443 79.976 149.747L79.9758 149.742C81.6083 151.479 83.008 153.562 84.936 154.864C87.2523 156.428 89.9275 156.053 92.2166 154.3C94.7854 152.331 95.6902 149.605 94.8915 146.585C94.4125 144.777 93.1882 143.163 92.2947 141.465C92.0135 141.559 91.7323 141.654 91.4509 141.744C91.4506 143.973 91.4505 146.207 91.4515 148.82C89.4132 147.725 87.6039 146.832 85.8729 145.806C84.0864 144.743 83.307 143.272 83.4707 141.003C83.7139 137.556 83.4777 134.078 83.4453 130.39C84.9039 130.522 86.0616 130.625 87.2194 130.728L87.1459 130.687C94.0113 132.81 98.7736 137.281 101.807 143.728C104.301 149.027 103.213 155.77 99.0915 160.099C98.964 160.23 98.9114 160.43 98.5729 161.076C102.543 158.189 103.62 154.44 103.95 150.314C104.27 155.735 103.461 159.202 96.7285 163.773C98.9249 163.561 100.521 163.405 102.442 163.22C102.404 165.871 102.371 168.339 102.334 170.806C102.491 170.834 102.649 170.862 102.811 170.885C102.999 168.825 103.186 166.761 103.378 164.701C103.463 164.706 103.548 164.71 103.633 164.715C103.666 165.37 103.708 166.025 103.731 166.68C103.899 171.555 103.888 171.515 99.0847 172.573C98.2052 172.764 97.4304 173.442 96.6044 173.898C96.6987 173.55 96.829 173.208 96.8783 172.853C96.9177 172.569 96.858 172.268 96.8433 171.974C96.6606 171.983 96.4779 171.993 96.2999 172.006C96.2463 174.689 95.2069 177.404 96.8708 180.037L96.8755 180.041Z" fill="white"/>
<path d="M49.5488 328.9C54.1013 327.203 57.565 324.278 58.9687 319.557C60.3072 315.049 60.5269 310.414 59.1886 305.804C61.2421 310.87 61.5763 316.04 59.6024 321.151C57.0791 327.697 50.4589 332.54 40.6348 331.378C28.9636 329.995 15.4176 317.645 14.9084 303.964C14.6792 297.765 16.7614 292.676 21.8232 288.563C23.5816 291.03 25.3823 293.362 26.9537 295.843C27.8897 297.32 27.7089 299.067 26.7398 300.505C21.944 307.615 31.2063 319.711 39.3778 319.539C45.8845 319.402 50.5035 312.595 47.8288 306.63C47.4061 305.682 46.7972 304.761 46.6357 303.764C46.4767 302.816 46.4388 301.522 46.9547 300.848C48.2465 299.162 49.8343 297.68 51.4349 296.273C51.7175 296.027 52.9242 296.306 53.2435 296.706C58.4998 303.372 61.4811 312.793 57.2079 321.244C55.8214 323.985 52.8307 325.913 50.5545 328.193C50.2695 328.48 49.8855 328.664 49.5442 328.896L49.5488 328.9Z" fill="white"/>
<path d="M86.0681 189.243C86.4007 191.161 86.8712 193.068 87.0302 194.999C87.1919 196.983 87.051 198.992 87.0375 201.226C92.3613 202.448 97.6849 203.665 103.104 204.909C102.88 207.77 102.661 210.533 102.426 213.534C99.4267 212.866 96.6943 212.274 93.9694 211.656C91.5383 211.102 89.1218 210.486 86.6871 209.951C82.1338 208.95 77.5772 207.971 73.0168 207.006C71.1295 206.609 69.2202 206.307 67.3327 205.905C63.9416 205.185 62.5462 203.455 62.5604 200.072C62.5746 196.064 62.5888 192.056 62.6077 188.052C62.6347 182.332 66.0317 179.326 71.6902 180.361C77.3756 181.399 82.9055 182.901 85.4545 189.033C85.5053 189.155 85.8362 189.161 86.0403 189.223C85.8982 192.996 85.7558 196.765 85.6137 200.538L86.6278 200.536C86.4397 196.771 86.2516 193.005 86.0635 189.239L86.0681 189.243ZM78.3503 199.391C78.4037 196.256 78.5346 193.6 78.4249 190.957C78.4006 190.382 77.605 189.657 76.9855 189.331C76.1551 188.894 75.164 188.729 74.2208 188.54C71.9011 188.07 71.33 188.443 71.2387 190.73C71.1598 192.727 71.2599 194.732 71.3775 196.728C71.3982 197.142 71.779 197.789 72.1235 197.888C74.0268 198.427 75.9679 198.831 78.3503 199.391ZM70.0002 196.971C70.2104 196.974 70.4158 196.972 70.6259 196.975C70.6492 195.384 70.6455 193.789 70.6954 192.196C70.7454 190.603 70.8491 189.012 70.9305 187.422C69.6271 190.485 69.9821 193.746 70.0002 196.971Z" fill="white"/>
<path d="M60.2985 56.8668C60.3054 53.6946 60.3077 50.5225 60.3143 47.3458C60.493 47.3458 60.6764 47.35 60.8551 47.35L61.3863 57.983C58.9204 57.5388 56.8147 57.2419 54.7454 56.7779C45.1932 54.6193 35.6482 52.4245 26.1029 50.2253C23.5358 49.6343 20.7127 49.6412 18.7397 47.5284C17.9751 46.7088 17.0034 45.6807 16.9315 44.688C16.729 41.9774 16.9538 39.232 17.0116 36.2761C21.5377 37.2697 25.8686 38.2015 30.1881 39.1741C39.2383 41.2104 48.274 43.3144 57.3387 45.283C58.8291 45.6062 59.5223 46.0674 59.4429 47.6975C59.334 49.9904 59.4491 52.2943 59.4838 54.5978C59.4953 55.3657 59.5604 56.1309 59.5987 56.8974C59.8304 56.8858 60.0621 56.8742 60.2939 56.8626L60.2985 56.8668Z" fill="white"/>
<path d="M100.142 234.248C112.421 242.435 122.744 262.524 114.886 283.543C107.091 304.398 85.8668 314.979 66.0494 310.786L65.9094 307.983C69.484 308.175 72.9478 308.65 76.3848 308.501C88.0512 307.998 97.5656 302.962 105.105 294.155C112.977 284.956 115.687 274.094 114.015 262.366C112.734 253.352 108.48 245.469 101.623 239.307C99.93 237.788 99.7021 236.356 100.138 234.252L100.142 234.248Z" fill="white"/>
<path d="M102.403 194.463C100.072 193.15 98.0232 192.015 95.9944 190.843C85.9669 185.071 75.9597 179.258 65.8952 173.551C64.5801 172.804 64.4124 171.95 64.9655 170.859C65.6768 169.448 66.5944 168.142 67.5196 166.63C70.313 168.175 73.1773 169.707 75.9877 171.323C84.2164 176.054 92.4079 180.845 100.653 185.544C101.922 186.267 102.473 187.092 102.393 188.548C102.297 190.371 102.388 192.203 102.403 194.458L102.403 194.463Z" fill="white"/>
<path d="M82.6398 312.624C83.0257 315.25 78.8826 317.901 75.8536 318.079C72.8155 318.253 69.4312 315.969 68.7849 313.317L82.6443 312.624L82.6398 312.624Z" fill="white"/>
<path d="M115.954 251.096C113.415 247.045 110.93 243.086 108.45 239.131C110.991 238.227 114.237 239.432 116.071 241.985C118.026 244.715 117.995 248.402 115.954 251.096Z" fill="white"/>
<path d="M119.22 274.168L118.523 260.215C121.175 260.543 123.561 263.497 123.967 266.881C124.289 269.581 122.055 273.052 119.22 274.168Z" fill="white"/>
<path d="M116.967 283.443C118.931 285.472 119.575 288.522 118.515 290.907C116.904 294.53 114.596 295.91 110.286 295.831C112.485 291.749 114.694 287.658 116.967 283.443Z" fill="white"/>
<path d="M103.877 302.584C104.536 306.205 103.141 309.228 100.112 310.742C97.0522 312.271 93.7336 312.017 91.9451 310.109C95.882 307.625 99.8233 305.141 103.877 302.584Z" fill="white"/>
<path d="M112.12 260.285L112.803 273.961C109.623 272.905 108.837 270.576 108.345 268.242C107.677 265.068 109.386 262.798 112.12 260.285Z" fill="white"/>
<path d="M111.275 280.842C109.132 284.804 107.104 288.56 104.969 292.509C102.939 289.889 102.785 287.252 104.202 284.756C105.86 281.827 107.997 280.514 111.275 280.846L111.275 280.842Z" fill="white"/>
<path d="M102.787 243.296C105.161 244.75 108.586 250.088 109.863 254.272C107.074 254.599 105.096 253.286 103.626 251.233C101.897 248.818 101.398 246.153 102.792 243.296L102.787 243.296Z" fill="white"/>
<path d="M99.645 297.099C97.7705 299.73 91.3148 303.663 88.5966 303.892C88.3772 300.843 90.0808 298.725 92.3648 297.405C94.4751 296.187 97.0171 295.47 99.645 297.099Z" fill="white"/>
<path d="M81.9291 306.088C77.7692 307.596 73.5836 307.068 69.377 306.657C69.7467 304.669 71.6793 303.022 74.0566 302.586C77.2176 302.008 80.3457 303.366 81.9289 306.084L81.9291 306.088Z" fill="white"/>
<path d="M29.2938 298.063C29.2312 298.865 29.3882 299.773 29.0693 300.455C27.6795 303.397 26.7199 306.367 28.0228 310.09C26.3299 308.039 25.9449 306.951 26.5974 303.826C27.0155 301.822 28.0838 299.955 28.8631 298.026C29.0066 298.037 29.1501 298.047 29.2938 298.063Z" fill="white"/>
<path d="M79.9851 149.75C78.9474 146.237 78.2185 142.735 80.1567 139.502C80.1026 142.802 80.0437 146.272 79.9847 149.742L79.9849 149.746L79.9851 149.75Z" fill="white"/>
</g>
<defs>
<clipPath id="clip0_14_205">
<rect width="327.816" height="110.782" fill="white" transform="translate(16.3556 332.935) rotate(-92.8598)"/>
</clipPath>
</defs>
</svg>
